<svg width="16" height="16" viewBox="0 0 16 16" fill="none" xmlns="http://www.w3.org/2000/svg">
<path fill-rule="evenodd" clip-rule="evenodd" d="M0 11.5C0 11.3674 0.0526784 11.2402 0.146447 11.1464C0.240215 11.0527 0.367392 11 0.5 11L4.80702 10.9951C4.93963 10.9951 5.06681 11.0478 5.16057 11.1415C5.25434 11.2353 5.30702 11.3625 5.30702 11.4951C5.30702 11.6277 5.25434 11.7549 5.16057 11.8486C5.06681 11.9424 4.93963 11.9951 4.80702 11.9951L0.5 12C0.367392 12 0.240215 11.9473 0.146447 11.8536C0.0526784 11.7598 0 11.6326 0 11.5ZM0 7.5C0 7.36739 0.0526784 7.24021 0.146447 7.14645C0.240215 7.05268 0.367392 7 0.5 7H8C8.13261 7 8.25979 7.05268 8.35355 7.14645C8.44732 7.24021 8.5 7.36739 8.5 7.5C8.5 7.63261 8.44732 7.75979 8.35355 7.85355C8.25979 7.94732 8.13261 8 8 8H0.5C0.367392 8 0.240215 7.94732 0.146447 7.85355C0.0526784 7.75979 0 7.63261 0 7.5ZM0 3.5C0 3.36739 0.0526784 3.24021 0.146447 3.14645C0.240215 3.05268 0.367392 3 0.5 3H8C8.13261 3 8.25979 3.05268 8.35355 3.14645C8.44732 3.24021 8.5 3.36739 8.5 3.5C8.5 3.63261 8.44732 3.75979 8.35355 3.85355C8.25979 3.94732 8.13261 4 8 4H0.5C0.367392 4 0.240215 3.94732 0.146447 3.85355C0.0526784 3.75979 0 3.63261 0 3.5Z" fill="black"/>
<path d="M10.8313 1.93916C10.7623 1.91329 10.6879 1.90454 10.6147 1.91366C10.5415 1.92277 10.4716 1.94948 10.411 1.99149C10.3504 2.03351 10.3008 2.08958 10.2666 2.15492C10.2324 2.22026 10.2145 2.29292 10.2144 2.36668V9.75213C9.79239 9.41424 9.26995 9.22634 8.72939 9.21802C8.18882 9.20969 7.66085 9.38143 7.22862 9.70617C6.79639 10.0309 6.48447 10.4902 6.34199 11.0117C6.1995 11.5332 6.23455 12.0873 6.44161 12.5867C6.64866 13.0862 7.01597 13.5025 7.48566 13.7702C7.95536 14.0379 8.50077 14.1417 9.03597 14.0654C9.57118 13.989 10.0658 13.7368 10.4419 13.3484C10.818 12.96 11.0542 12.4576 11.1133 11.9202C11.1227 11.883 11.1276 11.8447 11.1279 11.8063V6.07068L15.3831 7.66628C15.4522 7.69215 15.5265 7.7009 15.5997 7.69178C15.6729 7.68267 15.7428 7.65596 15.8034 7.61395C15.864 7.57193 15.9136 7.51586 15.9478 7.45052C15.9821 7.38518 16 7.31252 16 7.23875V5.24912C16.0001 4.84611 15.8772 4.45266 15.6477 4.12138C15.4181 3.79011 15.093 3.53679 14.7156 3.3953L10.8313 1.93916Z" fill="black"/>
</svg>
