<svg width="16" height="16" viewBox="0 0 16 16" fill="none" xmlns="http://www.w3.org/2000/svg">
<path fill-rule="evenodd" clip-rule="evenodd" d="M0 11.5C0 11.3674 0.0526784 11.2402 0.146447 11.1464C0.240215 11.0527 0.367392 11 0.5 11L4.80702 10.9951C4.93963 10.9951 5.06681 11.0478 5.16057 11.1415C5.25434 11.2353 5.30702 11.3625 5.30702 11.4951C5.30702 11.6277 5.25434 11.7549 5.16057 11.8486C5.06681 11.9424 4.93963 11.9951 4.80702 11.9951L0.5 12C0.367392 12 0.240215 11.9473 0.146447 11.8536C0.0526784 11.7598 0 11.6326 0 11.5ZM0 7.5C0 7.36739 0.0526784 7.24021 0.146447 7.14645C0.240215 7.05268 0.367392 7 0.5 7H8C8.13261 7 8.25979 7.05268 8.35355 7.14645C8.44732 7.24021 8.5 7.36739 8.5 7.5C8.5 7.63261 8.44732 7.75979 8.35355 7.85355C8.25979 7.94732 8.13261 8 8 8H0.5C0.367392 8 0.240215 7.94732 0.146447 7.85355C0.0526784 7.75979 0 7.63261 0 7.5ZM0 3.5C0 3.36739 0.0526784 3.24021 0.146447 3.14645C0.240215 3.05268 0.367392 3 0.5 3H8C8.13261 3 8.25979 3.05268 8.35355 3.14645C8.44732 3.24021 8.5 3.36739 8.5 3.5C8.5 3.63261 8.44732 3.75979 8.35355 3.85355C8.25979 3.94732 8.13261 4 8 4H0.5C0.367392 4 0.240215 3.94732 0.146447 3.85355C0.0526784 3.75979 0 3.63261 0 3.5Z" fill="black"/>
<path d="M10.8294 1.93915C10.7603 1.91329 10.6861 1.90454 10.6129 1.91365C10.5397 1.92276 10.4698 1.94946 10.4092 1.99146C10.3486 2.03345 10.2991 2.08951 10.2649 2.15482C10.2307 2.22013 10.2128 2.29276 10.2127 2.36649V9.7488C9.79089 9.41105 9.26867 9.22323 8.72834 9.21491C8.188 9.20659 7.66025 9.37825 7.22821 9.70286C6.79616 10.0275 6.48438 10.4866 6.34195 11.0079C6.19953 11.5292 6.23456 12.083 6.44153 12.5822C6.6485 13.0814 7.01564 13.4976 7.48514 13.7651C7.95464 14.0327 8.49981 14.1365 9.03479 14.0602C9.56977 13.9839 10.0642 13.7318 10.4401 13.3435C10.816 12.9553 11.0521 12.4531 11.1113 11.9159C11.1206 11.8787 11.1255 11.8405 11.1259 11.8021V6.06891L15.3792 7.66383C15.4482 7.68969 15.5225 7.69844 15.5957 7.68933C15.6689 7.68022 15.7387 7.65352 15.7994 7.61152C15.86 7.56952 15.9095 7.51347 15.9437 7.44816C15.9779 7.38285 15.9958 7.31022 15.9959 7.23649V5.2477C15.996 4.84486 15.8731 4.45158 15.6437 4.12044C15.4143 3.78931 15.0892 3.5361 14.712 3.39467L10.8294 1.93915ZM10.2127 11.6499C10.2127 12.0536 10.0524 12.4406 9.76699 12.7261C9.48158 13.0115 9.09449 13.1718 8.69086 13.1718C8.28723 13.1718 7.90014 13.0115 7.61473 12.7261C7.32933 12.4406 7.16899 12.0536 7.16899 11.6499C7.16899 11.2463 7.32933 10.8592 7.61473 10.5738C7.90014 10.2884 8.28723 10.1281 8.69086 10.1281C9.09449 10.1281 9.48158 10.2884 9.76699 10.5738C10.0524 10.8592 10.2127 11.2463 10.2127 11.6499ZM15.0827 6.57782L11.1259 5.09369V3.02516L14.3918 4.24996C14.5948 4.32617 14.7698 4.46254 14.8932 4.64083C15.0167 4.81912 15.0828 5.03084 15.0827 5.2477V6.57782Z" fill="black"/>
</svg>
