<svg width="19" height="19" viewBox="0 0 19 19" fill="none" xmlns="http://www.w3.org/2000/svg">
<g opacity="0.95" filter="url(#filter0_bd_54511_1444)">
<path fill-rule="evenodd" clip-rule="evenodd" d="M5.25303 9.06276L9.26903 12.7714L9.2693 12.7712L13.0168 16.2319C14.1258 17.256 15.9238 17.256 17.0328 16.2319C18.1418 15.2078 18.1418 13.5474 17.0328 12.5232L13.2853 9.06251L17.1682 5.47676C18.2772 4.45264 18.2772 2.79221 17.1682 1.76809C16.0592 0.74397 14.2612 0.743969 13.1522 1.76809L7.27459 7.1959C7.27013 7.19996 7.26569 7.20404 7.26126 7.20813C7.25682 7.21223 7.25241 7.21633 7.24801 7.22044L5.25303 9.06276Z" fill="url(#paint0_linear_54511_1444)"/>
</g>
<g opacity="0.95" filter="url(#filter1_bd_54511_1444)">
<path fill-rule="evenodd" clip-rule="evenodd" d="M12.7519 7.22044C13.8271 8.21335 13.8271 9.91217 12.7519 10.9051L10.731 12.7713C10.731 12.7714 10.7308 12.7714 10.7308 12.7713C10.7307 12.7712 10.7306 12.7712 10.7305 12.7713L6.98312 16.2319C5.87413 17.256 4.07611 17.256 2.96712 16.2319C1.85813 15.2078 1.85813 13.5474 2.96712 12.5232L3.80524 11.7493C5.37324 10.3013 5.37324 7.82376 3.80524 6.37576L2.83174 5.47676C1.72275 4.45264 1.72275 2.79221 2.83174 1.76809C3.94073 0.74397 5.73875 0.743969 6.84774 1.76809L12.7254 7.1959C12.7298 7.19996 12.7343 7.20404 12.7387 7.20813C12.7431 7.21223 12.7475 7.21633 12.7519 7.22044Z" fill="url(#paint1_linear_54511_1444)"/>
<path d="M6.98312 16.2319L7.3708 16.6517H7.3708L6.98312 16.2319ZM2.96712 16.2319L3.3548 15.8121L2.96712 16.2319ZM2.96712 12.5232L3.3548 12.943H3.3548L2.96712 12.5232ZM2.83174 5.47676L3.21942 5.05696L2.83174 5.47676ZM2.83174 1.76809L3.21942 2.1879L2.83174 1.76809ZM6.84774 1.76809L6.46006 2.1879V2.1879L6.84774 1.76809ZM12.7254 7.1959L12.3377 7.61572L12.3404 7.6182L12.7254 7.1959ZM10.7305 12.7713L10.3428 12.3515L10.7305 12.7713ZM10.731 12.7713L10.3434 12.3515L10.731 12.7713ZM11.1187 13.1911L13.1396 11.3249L12.3642 10.4853L10.3434 12.3515L11.1187 13.1911ZM10.3428 12.3515L6.59544 15.8121L7.3708 16.6517L11.1182 13.1911L10.3428 12.3515ZM6.59544 15.8121C5.70537 16.6341 4.24487 16.6341 3.3548 15.8121L2.57944 16.6517C3.90735 17.878 6.04289 17.878 7.3708 16.6517L6.59544 15.8121ZM3.3548 15.8121C2.49081 15.0142 2.49081 13.7409 3.3548 12.943L2.57944 12.1034C1.22545 13.3538 1.22545 15.4013 2.57944 16.6517L3.3548 15.8121ZM3.3548 12.943L4.19291 12.1691L3.41756 11.3295L2.57944 12.1034L3.3548 12.943ZM2.44406 5.89657L3.41756 6.79556L4.19292 5.95595L3.21942 5.05696L2.44406 5.89657ZM2.44406 1.34829C1.09007 2.59866 1.09007 4.64619 2.44406 5.89657L3.21942 5.05696C2.35543 4.25909 2.35543 2.98577 3.21942 2.1879L2.44406 1.34829ZM7.23542 1.34829C5.90751 0.121999 3.77197 0.122 2.44406 1.34829L3.21942 2.1879C4.10949 1.36594 5.56999 1.36594 6.46006 2.1879L7.23542 1.34829ZM13.113 6.7761L7.23542 1.34829L6.46006 2.1879L12.3377 7.61571L13.113 6.7761ZM12.3404 7.6182C12.3439 7.62142 12.3475 7.62467 12.351 7.62795L13.1263 6.78832C13.121 6.78341 13.1157 6.7785 13.1103 6.7736L12.3404 7.6182ZM12.351 7.62795C12.3545 7.63116 12.358 7.63443 12.3616 7.63776L13.1423 6.80312C13.137 6.79823 13.1317 6.79329 13.1263 6.78832L12.351 7.62795ZM11.119 12.352C10.9 12.1493 10.562 12.1491 10.3428 12.3515L11.1182 13.1911C10.8991 13.3934 10.5614 13.3932 10.3426 13.1906L11.119 12.352ZM4.19291 12.1691C6.00592 10.4948 6.00592 7.63021 4.19292 5.95595L3.41756 6.79556C4.74056 8.01732 4.74056 10.1077 3.41756 11.3295L4.19291 12.1691ZM13.1396 11.3249C14.4598 10.1057 14.4598 8.01979 13.1396 6.80064L12.3642 7.64025C13.1944 8.4069 13.1944 9.71861 12.3642 10.4853L13.1396 11.3249ZM10.3434 12.3515C10.5624 12.1492 10.9002 12.1494 11.119 12.352L10.3426 13.1906C10.5615 13.3933 10.8995 13.3935 11.1187 13.1911L10.3434 12.3515Z" fill="#EFB8C8"/>
</g>
<defs>
<filter id="filter0_bd_54511_1444" x="4.79588" y="0.542857" width="13.6612" height="17.0971" filterUnits="userSpaceOnUse" color-interpolation-filters="sRGB">
<feFlood flood-opacity="0" result="BackgroundImageFix"/>
<feGaussianBlur in="BackgroundImageFix" stdDeviation="0.228571"/>
<feComposite in2="SourceAlpha" operator="in" result="effect1_backgroundBlur_54511_1444"/>
<feColorMatrix in="SourceAlpha" type="matrix" values="0 0 0 0 0 0 0 0 0 0 0 0 0 0 0 0 0 0 127 0" result="hardAlpha"/>
<feOffset dy="0.182857"/>
<feGaussianBlur stdDeviation="0.228571"/>
<feComposite in2="hardAlpha" operator="out"/>
<feColorMatrix type="matrix" values="0 0 0 0 0 0 0 0 0 0 0 0 0 0 0 0 0 0 0.25 0"/>
<feBlend mode="normal" in2="effect1_backgroundBlur_54511_1444" result="effect2_dropShadow_54511_1444"/>
<feBlend mode="normal" in="SourceGraphic" in2="effect2_dropShadow_54511_1444" result="shape"/>
</filter>
<filter id="filter1_bd_54511_1444" x="0.971415" y="-0.028554" width="13.6155" height="18.24" filterUnits="userSpaceOnUse" color-interpolation-filters="sRGB">
<feFlood flood-opacity="0" result="BackgroundImageFix"/>
<feGaussianBlur in="BackgroundImageFix" stdDeviation="0.228571"/>
<feComposite in2="SourceAlpha" operator="in" result="effect1_backgroundBlur_54511_1444"/>
<feColorMatrix in="SourceAlpha" type="matrix" values="0 0 0 0 0 0 0 0 0 0 0 0 0 0 0 0 0 0 127 0" result="hardAlpha"/>
<feOffset dy="0.182857"/>
<feGaussianBlur stdDeviation="0.228571"/>
<feComposite in2="hardAlpha" operator="out"/>
<feColorMatrix type="matrix" values="0 0 0 0 0 0 0 0 0 0 0 0 0 0 0 0 0 0 0.25 0"/>
<feBlend mode="normal" in2="effect1_backgroundBlur_54511_1444" result="effect2_dropShadow_54511_1444"/>
<feBlend mode="normal" in="SourceGraphic" in2="effect2_dropShadow_54511_1444" result="shape"/>
</filter>
<linearGradient id="paint0_linear_54511_1444" x1="8.79092" y1="5.81282" x2="16.1097" y2="16.7019" gradientUnits="userSpaceOnUse">
<stop stop-color="#581C74"/>
<stop offset="1" stop-color="#1C2574"/>
</linearGradient>
<linearGradient id="paint1_linear_54511_1444" x1="7.77923" y1="1" x2="7.77923" y2="17" gradientUnits="userSpaceOnUse">
<stop stop-color="#AD5BD5"/>
<stop offset="0.0001" stop-color="#9326C5"/>
<stop offset="1" stop-color="#4E2293"/>
</linearGradient>
</defs>
</svg>
