<svg width="604" height="604" viewBox="0 0 604 604" fill="none" xmlns="http://www.w3.org/2000/svg">
<g opacity="0.95" filter="url(#filter0_bd_54360_35324)">
<path fill-rule="evenodd" clip-rule="evenodd" d="M347.5 360.266V268.396L430.501 327.896C430.501 327.896 465.001 350.396 494.001 313.396C523.001 276.396 488.501 242.896 488.501 242.896C488.501 242.896 350.999 138.396 321.5 115.896C292.001 93.3958 251.5 116.896 251.5 149.396V250.161C242.5 248.093 233.128 247 223.5 247C154.741 247 99 302.741 99 371.5C99 440.259 154.741 496 223.5 496C292.259 496 348 440.259 348 371.5C348 367.713 347.831 363.966 347.5 360.266Z" fill="url(#paint0_linear_54360_35324)"/>
<path d="M347.5 268.396L354.783 258.236L335 244.055V268.396H347.5ZM347.5 360.266H335V360.824L335.05 361.379L347.5 360.266ZM430.501 327.896L423.218 338.055L423.442 338.216L423.672 338.366L430.501 327.896ZM488.501 242.896L497.209 233.928L496.666 233.401L496.064 232.944L488.501 242.896ZM321.5 115.896L329.081 105.957L329.081 105.957L321.5 115.896ZM251.5 149.396L264 149.396L264 149.396L251.5 149.396ZM251.5 250.161L248.7 262.344L264 265.86V250.161H251.5ZM335 268.396V360.266H360V268.396H335ZM437.783 317.737L354.783 258.236L340.217 278.555L423.218 338.055L437.783 317.737ZM484.162 305.685C472.392 320.702 460.686 322.739 452.393 322.062C447.889 321.695 443.962 320.462 441.138 319.289C439.745 318.71 438.675 318.17 438.004 317.805C437.67 317.624 437.44 317.489 437.323 317.419C437.265 317.384 437.236 317.366 437.236 317.366C437.236 317.366 437.244 317.371 437.259 317.381C437.267 317.386 437.277 317.392 437.288 317.399C437.294 317.403 437.3 317.407 437.307 317.412C437.311 317.414 437.316 317.417 437.318 317.418C437.323 317.422 437.329 317.426 430.501 327.896C423.672 338.366 423.678 338.37 423.684 338.374C423.687 338.375 423.693 338.379 423.697 338.382C423.706 338.388 423.715 338.394 423.725 338.4C423.745 338.413 423.768 338.428 423.792 338.443C423.841 338.474 423.899 338.511 423.965 338.553C424.098 338.636 424.265 338.739 424.467 338.86C424.87 339.101 425.409 339.414 426.075 339.775C427.404 340.497 429.256 341.425 431.551 342.378C436.102 344.267 442.613 346.347 450.359 346.979C466.565 348.302 486.609 343.09 503.839 321.107L484.162 305.685ZM488.501 242.896C479.793 251.864 479.789 251.86 479.785 251.856C479.783 251.855 479.78 251.851 479.777 251.849C479.773 251.844 479.768 251.84 479.765 251.836C479.757 251.829 479.752 251.824 479.749 251.821C479.742 251.814 479.743 251.815 479.751 251.824C479.768 251.84 479.815 251.887 479.888 251.963C480.035 252.115 480.287 252.382 480.622 252.755C481.296 253.506 482.289 254.672 483.428 256.195C485.736 259.28 488.482 263.617 490.459 268.758C494.224 278.548 495.406 291.339 484.162 305.685L503.839 321.107C521.595 298.452 520.027 275.993 513.792 259.784C510.77 251.924 506.703 245.574 503.448 241.222C501.806 239.026 500.331 237.286 499.23 236.06C498.679 235.445 498.218 234.956 497.874 234.599C497.701 234.42 497.558 234.275 497.446 234.163C497.39 234.107 497.342 234.059 497.302 234.02C497.282 234 497.265 233.983 497.249 233.967C497.241 233.96 497.234 233.953 497.227 233.946C497.224 233.943 497.219 233.938 497.217 233.937C497.213 233.932 497.209 233.928 488.501 242.896ZM313.919 125.835C328.679 137.092 370.439 168.85 408.497 197.784C427.529 212.253 445.639 226.019 458.991 236.168C465.667 241.242 471.153 245.412 474.971 248.313C476.88 249.764 478.371 250.898 479.386 251.669C479.893 252.054 480.281 252.349 480.542 252.547C480.672 252.647 480.771 252.722 480.837 252.772C480.87 252.797 480.895 252.816 480.912 252.829C480.92 252.835 480.927 252.84 480.931 252.843C480.933 252.845 480.934 252.846 480.936 252.847C480.937 252.847 480.937 252.848 488.501 242.896C496.064 232.944 496.064 232.943 496.063 232.943C496.062 232.942 496.06 232.941 496.058 232.939C496.054 232.936 496.047 232.931 496.039 232.925C496.022 232.912 495.997 232.893 495.964 232.868C495.898 232.818 495.799 232.743 495.669 232.643C495.408 232.445 495.02 232.15 494.513 231.765C493.499 230.994 492.007 229.86 490.099 228.41C486.281 225.508 480.795 221.339 474.119 216.264C460.768 206.116 442.659 192.351 423.628 177.882C385.561 148.942 343.821 117.199 329.081 105.957L313.919 125.835ZM264 149.396C264 126.615 293.142 109.987 313.919 125.835L329.081 105.957C290.859 76.8043 239 107.176 239 149.396L264 149.396ZM264 250.161V149.396H239V250.161H264ZM223.5 259.5C232.179 259.5 240.612 260.485 248.7 262.344L254.3 237.979C244.388 235.701 234.076 234.5 223.5 234.5V259.5ZM111.5 371.5C111.5 309.644 161.644 259.5 223.5 259.5V234.5C147.837 234.5 86.5 295.837 86.5 371.5H111.5ZM223.5 483.5C161.644 483.5 111.5 433.356 111.5 371.5H86.5C86.5 447.163 147.837 508.5 223.5 508.5V483.5ZM335.5 371.5C335.5 433.356 285.356 483.5 223.5 483.5V508.5C299.163 508.5 360.5 447.163 360.5 371.5H335.5ZM335.05 361.379C335.348 364.71 335.5 368.086 335.5 371.5H360.5C360.5 367.341 360.314 363.223 359.95 359.153L335.05 361.379Z" fill="#EFB8C8"/>
</g>
<circle opacity="0.95" cx="172" cy="364" r="30" fill="#EEBACA"/>
<rect opacity="0.95" x="221" y="296" width="32" height="111" rx="16" fill="#EEBACA"/>
<defs>
<filter id="filter0_bd_54360_35324" x="76.5" y="84.4189" width="451.598" height="438.081" filterUnits="userSpaceOnUse" color-interpolation-filters="sRGB">
<feFlood flood-opacity="0" result="BackgroundImageFix"/>
<feGaussianBlur in="BackgroundImageFix" stdDeviation="5"/>
<feComposite in2="SourceAlpha" operator="in" result="effect1_backgroundBlur_54360_35324"/>
<feColorMatrix in="SourceAlpha" type="matrix" values="0 0 0 0 0 0 0 0 0 0 0 0 0 0 0 0 0 0 127 0" result="hardAlpha"/>
<feOffset dy="4"/>
<feGaussianBlur stdDeviation="5"/>
<feComposite in2="hardAlpha" operator="out"/>
<feColorMatrix type="matrix" values="0 0 0 0 0 0 0 0 0 0 0 0 0 0 0 0 0 0 0.25 0"/>
<feBlend mode="normal" in2="effect1_backgroundBlur_54360_35324" result="effect2_dropShadow_54360_35324"/>
<feBlend mode="normal" in="SourceGraphic" in2="effect2_dropShadow_54360_35324" result="shape"/>
</filter>
<linearGradient id="paint0_linear_54360_35324" x1="302.552" y1="107" x2="302.552" y2="496" gradientUnits="userSpaceOnUse">
<stop stop-color="#AD5BD5"/>
<stop offset="0.0001" stop-color="#9326C5"/>
<stop offset="1" stop-color="#4E2293"/>
</linearGradient>
</defs>
</svg>
